<svg width="121" height="121" viewBox="0 0 121 121" fill="none" xmlns="http://www.w3.org/2000/svg">
<path d="M60.6665 80.5L56.4239 84.7426L60.6665 88.9853L64.9091 84.7426L60.6665 80.5ZM66.6665 20.5C66.6665 17.1863 63.9802 14.5 60.6665 14.5C57.3528 14.5 54.6665 17.1863 54.6665 20.5L66.6665 20.5ZM26.4239 54.7426L56.4239 84.7426L64.9091 76.2574L34.9091 46.2574L26.4239 54.7426ZM64.9091 84.7426L94.9091 54.7426L86.4239 46.2574L56.4239 76.2574L64.9091 84.7426ZM66.6665 80.5L66.6665 20.5L54.6665 20.5L54.6665 80.5L66.6665 80.5Z" fill="white"/>
<path d="M25.6665 105.5L95.6665 105.5" stroke="white" stroke-width="12"/>
</svg>
