<svg width="121" height="121" viewBox="0 0 121 121" fill="none" xmlns="http://www.w3.org/2000/svg">
<path d="M60.6665 80.5L59.9594 81.2071L60.6665 81.9142L61.3736 81.2071L60.6665 80.5ZM61.6665 20.5C61.6665 19.9477 61.2188 19.5 60.6665 19.5C60.1142 19.5 59.6665 19.9477 59.6665 20.5L61.6665 20.5ZM29.9594 51.2071L59.9594 81.2071L61.3736 79.7929L31.3736 49.7929L29.9594 51.2071ZM61.3736 81.2071L91.3736 51.2071L89.9594 49.7929L59.9594 79.7929L61.3736 81.2071ZM61.6665 80.5L61.6665 20.5L59.6665 20.5L59.6665 80.5L61.6665 80.5Z" fill="white"/>
<path d="M25.6665 105.5L95.6665 105.5" stroke="white" stroke-width="2"/>
</svg>
