<svg width="120" height="121" viewBox="0 0 120 121" fill="none" xmlns="http://www.w3.org/2000/svg">
<path d="M103.4 70.05V70C99 65.35 92.85 62.5 86 62.5C72.75 62.5 62 73.25 62 86.5C62 92.65 64.35 98.25 68.15 102.5C72.55 107.4 78.9 110.5 86 110.5C99.25 110.5 110 99.75 110 86.5C110 80.15 107.5 74.35 103.4 70.05ZM94.95 90.55H89.75V96C89.75 98.05 88.05 99.75 86 99.75C83.95 99.75 82.25 98.05 82.25 96V90.55H77.05C74.95 90.55 73.3 88.9 73.3 86.8C73.3 84.75 74.9 83.1 77 83.05H82.25V78.05C82.25 77.95 82.25 77.85 82.3 77.75C82.4 75.85 84.05 74.3 86 74.3C88 74.3 89.65 75.9 89.75 77.9V83.05H94.95C97.05 83.05 98.7 84.75 98.7 86.8C98.7 88.9 97.05 90.55 94.95 90.55Z" fill="white"/>
<path d="M110 44.1499C110 50.0999 109.05 55.5999 107.4 60.6999C107.1 61.7499 105.85 62.05 104.95 61.4C99.5 57.35 92.85 55.1999 86 55.1999C68.65 55.1999 54.5 69.3499 54.5 86.6999C54.5 92.0999 55.9 97.4 58.55 102.1C59.35 103.5 58.4 105.3 56.9 104.75C44.85 100.65 20.5 85.6999 12.6 60.6999C10.95 55.5999 10 50.0999 10 44.1499C10 28.6999 22.45 16.2 37.8 16.2C46.85 16.2 54.95 20.5999 60 27.35C65.05 20.5999 73.15 16.2 82.2 16.2C97.55 16.2 110 28.6999 110 44.1499Z" fill="white"/>
</svg>
