<svg width="120" height="120" viewBox="0 0 120 120" fill="none" xmlns="http://www.w3.org/2000/svg">
<path d="M103.45 69.6C103.4 69.6 103.4 69.55 103.4 69.55V69.5C99 64.9 92.85 62 86 62C72.75 62 62 72.75 62 86C62 92.15 64.35 97.75 68.15 102C72.55 106.9 78.9 110 86 110C99.25 110 110 99.25 110 86C110 79.65 107.5 73.9 103.45 69.6ZM95.05 95.35C94.35 96.05 93.35 96.45 92.4 96.45C91.45 96.45 90.5 96.05 89.75 95.35L86.05 91.65L82.25 95.5C81.5 96.2 80.55 96.6 79.6 96.6C79.1 96.6 78.65 96.5 78.2 96.3C77.75 96.15 77.3 95.85 76.95 95.5C75.45 94 75.45 91.65 76.95 90.2L80.75 86.35L77.1 82.65C75.6 81.2 75.6 78.8 77.1 77.35C78.55 75.9 80.9 75.9 82.4 77.35L86.05 81.05L89.6 77.5C91.1 76.05 93.45 76.05 94.9 77.5C95.75 78.35 96.1 79.45 95.95 80.55C95.9 81.4 95.55 82.2 94.9 82.8L91.35 86.35L95.05 90.05C96.55 91.5 96.55 93.85 95.05 95.35Z" fill="white"/>
<path d="M110 43.6499C110 49.5999 109.05 55.0999 107.4 60.1999C107.1 61.2499 105.85 61.55 104.95 60.9C99.5 56.85 92.85 54.6999 86 54.6999C68.65 54.6999 54.5 68.8499 54.5 86.1999C54.5 91.5999 55.9 96.9 58.55 101.6C59.35 103 58.4 104.8 56.9 104.25C44.85 100.15 20.5 85.1999 12.6 60.1999C10.95 55.0999 10 49.5999 10 43.6499C10 28.1999 22.45 15.7 37.8 15.7C46.85 15.7 54.95 20.0999 60 26.85C65.05 20.0999 73.15 15.7 82.2 15.7C97.55 15.7 110 28.1999 110 43.6499Z" fill="white"/>
</svg>
